<?xml version="1.0" encoding="UTF-8"?>
<svg id="Layer_2" data-name="Layer 2" xmlns="http://www.w3.org/2000/svg" viewBox="0 0 20.14 16.32">

  <g id="Layer_1-2" data-name="Layer 1">
    <g>
      <polygon class="cls-1" points="9.7 1.61 9.7 9.86 8.29 9.75 9.7 1.61"/>
      <polygon class="cls-1" points="10.45 0 10.56 9.86 12.19 9.73 10.45 0"/>
      <path class="cls-1" d="M10.07,13.05s9.53-.08,10.07-5.64c0-3.27-4.6-4.92-4.6-4.92,0,0,3.19,1.73,3.16,4.05s-4.34,4.88-8.63,4.69S1.74,9.69,1.48,6.28c0-2.65,3.46-3.79,3.46-3.79,0,0-4.94,1.26-4.94,4.75s4.91,5.8,10.07,5.8Z"/>
      <polygon class="cls-1" points="8.79 13.93 9.7 13.93 9.7 16.32 8.79 13.93"/>
      <polygon class="cls-1" points="10.45 13.93 11.15 13.93 10.45 15.56 10.45 13.93"/>
    </g>
  </g>
</svg>